<?xml version="1.0" encoding="utf-8"?>
<!-- Generator: Adobe Illustrator 23.0.5, SVG Export Plug-In . SVG Version: 6.00 Build 0)  -->
<svg version="1.1" id="Capa_1" xmlns="http://www.w3.org/2000/svg" xmlns:xlink="http://www.w3.org/1999/xlink" x="0px" y="0px"
	 viewBox="0 0 704.7 80.6" style="enable-background:new 0 0 704.7 80.6;" xml:space="preserve">
<style type="text/css">
	.st0{fill:#7B438E;stroke:#2A1C7C;stroke-miterlimit:10;}
</style>
<title>Juan Montivero</title>
<g>
	<g id="Capa_1-2">
		<path class="st0" d="M23.3,1.7c0.5,31.5,3,57.8-9,76h3.6l4.5-4C24.5,66,28.7,8.4,23.3,1.7z"/>
		<path class="st0" d="M38,1.7c-0.8,30.6-5.8,66.9,16,76l4-1c-23.1-13-17.9-26-18-60C40,10.8,40.7,4.8,38,1.7z"/>
		<path class="st0" d="M81,1.7c0.8,36.5,6.9,61.5-18,75v1h4c6.1-2.4,11.6-6.1,14-12C83.6,59.4,85.2,6.2,81,1.7z"/>
		<path class="st0" d="M235,1.7l1,77h1c0-23.3,3-60.4,2-74L235,1.7z"/>
		<path class="st0" d="M276,1.7l-19,35l-2-1l-11-22l-2,1v1l15,27v-2l17-31h2l1,69h1C278.3,65.8,281,7.3,276,1.7z"/>
		<path class="st0" d="M325,1.7c-16.2,6.2-25.4,5.7-33,20l20-15c24.5-9.8,46.2,8.7,50,27c4.8,23.2-13.2,38.7-29,42l-25-2l2,1
			c26.5,18.7,62-14.9,54-44C358.7,11.4,345.1,6.8,325,1.7z"/>
		<path class="st0" d="M445,4.7v74h3v-74c5.6,0.1,6,0.7,8-3h-28v3L445,4.7z"/>
		<path class="st0" d="M460,1.7c2,3.7-0.4,1.6,4,3v-3L460,1.7z"/>
		<path class="st0" d="M478,1.7l1,77h1C480.3,65.8,483,7.3,478,1.7z"/>
		<path class="st0" d="M491,1.7l16,57h1c0.8-19.5-9.6-37.7-13-57L491,1.7z"/>
		<path class="st0" d="M532,1.7l-21,75l2,1l23-76L532,1.7z"/>
		<path class="st0" d="M549,1.7l1,48h1l1-46l23-1L549,1.7z"/>
		<path class="st0" d="M588,1.7v31h3v-28c24.8-0.8,38.7,26.7,22,45c-5.1,5.6-20.8,2.9-25,9h10l10-1c2,6.8,7.4,18.6,14,21l-13-24
			C635.9,43.1,622.9,0.6,588,1.7z"/>
		<path class="st0" d="M121,2.7l-25,76h4l22-67h1l21,67h4C142.7,63.7,130.6,11,121,2.7z"/>
		<path class="st0" d="M160,2.7l1,74h1l1-63c2.6,3.5,2.6,6,7,8v-1L160,2.7z"/>
		<path class="st0" d="M378,2.7l1,74h1l1-64l1,2l5,7h1v-1L378,2.7z"/>
		<path class="st0" d="M194,3.7l-1,62l-2-1c-1.1-4.8-0.5-4.5-5-6l10,20h1C197.3,66.6,199,6.9,194,3.7z"/>
		<path class="st0" d="M412,3.7l1,64h-1c-2.9-3.9-2.8-7.1-8-9l10,20h1C415.3,66.6,417,6.9,412,3.7z"/>
		<path class="st0" d="M549,53.7v25l27-1l-25-2v-20l4-1L549,53.7z"/>
		<path class="st0" d="M117,56.7c1.2,6.8,3,19.5,9,22C124.1,72.1,122.8,59.7,117,56.7z"/>
		<path class="st0" d="M1,71.7c1.7,3.7,2.7,4.1,6,6h3v-2L1,71.7z"/>
		<path class="st0" d="M664,0.5c-16.2,6.2-25.4,5.7-33,20l20-15c24.5-9.8,46.2,8.7,50,27c4.8,23.2-13.2,38.8-29,42l-25-2l2,1
			c26.5,18.7,62-14.9,54-44C697.8,10.2,684.1,5.7,664,0.5z"/>
	</g>
</g>
</svg>
