<svg xmlns="http://www.w3.org/2000/svg" viewBox="0 0 301.9 56.07"><defs><style>.cls-1{fill:#475a9f;}.cls-1,.cls-10,.cls-2,.cls-3,.cls-4,.cls-5,.cls-6,.cls-7,.cls-8,.cls-9{stroke:#000;stroke-miterlimit:10;fill-rule:evenodd;}.cls-2{fill:#c6d03a;}.cls-3{fill:#841a1e;}.cls-4{fill:#349742;}.cls-5{fill:#c13c8b;}.cls-6{fill:#ecc433;}.cls-7{fill:#33985f;}.cls-8{fill:#584a93;}.cls-9{fill:#412983;}.cls-10{fill:#c8619c;}</style></defs><title>Search.Me</title><g id="Capa_2" data-name="Capa 2"><g id="Capa_1-2" data-name="Capa 1"><path class="cls-1" d="M9.87,1.54l-6,4c-3.68,17.94,10.58,18.86,17,31l2,11h1v-8c-4.24-9.58-12.09-16-19-23-.1-6.62.79-8.45,3-12l2-1,11,3v-1l-4-3Z"/><path class="cls-2" d="M33.87,1.54l1,34v-32l17-1Z"/><path class="cls-3" d="M79.87,1.54l-18,54h3l15-47h1v2l15,45h3Z"/><path class="cls-4" d="M107.87,1.54v22h3v-20c6.61-.08,9.85.85,13,4,9.14,5.35,8.45,24.52-1,29-3.41,2.73-11.34,2.36-15,5h15l8,14h1v-1l-8-16c13.82-6,9.9-30-2-35Z"/><path class="cls-5" d="M164.87,1.54c-37.79,17.47-18.45,60.37,1,53-43.17-18.59-13.55-70.56,23-41C186.3,4.57,176.59,1.29,164.87,1.54Z"/><path class="cls-6" d="M222.87,37.54l1,18h1l-1-40h-1v20h-22l-1-34h-1l1,54h1v-19h1Z"/><path class="cls-7" d="M233.87,49.54v6h10c-.28-13.92-3.54-40,2-50l-3-4h-1v49Z"/><path class="cls-7" d="M270.87,1.54l-14,25v-2l-9-14h-1v1l10,19,2-1,11-22h1l1,48h1C273.2,43.31,277.48,8.85,270.87,1.54Z"/><path class="cls-8" d="M282.87,1.54l1,34v-32l17-1Z"/><path class="cls-2" d="M33.87,55.54l19-1h-18c-.41-7.4-.2-12.48,3-16h-4Z"/><path class="cls-9" d="M282.87,55.54l19-1h-18c-.41-7.4-.2-12.48,3-16h-4Z"/><path class="cls-3" d="M76.87,40.54l4,15h2C82.24,50.05,80.76,43.09,76.87,40.54Z"/><path class="cls-10" d="M187.87,44.54c-4.67,6.05-9.57,6.45-17,10v1h4C180.68,53.64,188.94,50.35,187.87,44.54Z"/><path class="cls-1" d="M18.59,50.54C13.89,52.28,7.17,52.11.5,53.26v.67H12c5.27-1.1,6.89-1.25,9.86-3.39Z"/></g></g></svg>